<svg xmlns="http://www.w3.org/2000/svg" xmlns:xlink="http://www.w3.org/1999/xlink" width="640" height="160" viewBox="0 0 640 160"><defs><clipPath id="a"><path d="M233.16,10.72s-8.8-9.78-10.95-9.11c3.51,8.2,4.8,10.57,4.8,10.57Z" style="fill:#c99858"/></clipPath><clipPath id="b"><path d="M377.32,150.64h11s2.16-4.14,1.08-7c1.26-1.81,3.24-2.89,1.44-6.49s-8.22-21.1-8.26-48.79C370.93,61,346.5,73.86,346.5,73.86s28.11,41.82,29,45.25,2.53,3.78,4.15,6.3,5.77,15,2.88,17.85A35.35,35.35,0,0,0,377.32,150.64Z" style="fill:#b98446"/></clipPath><clipPath id="c"><path d="M259.14,121.07c1.33,1,10,4.74,10,4.74s2.81,2.33,8.8.49c-1.83-8.41-4.16-9.77-4.16-9.77l-4.83,2.7a36.48,36.48,0,0,1-5.52-3.09c-1.67-2-13.74-25.26-13.74-25.26l30.34-3-15-21L243,82c-2.09,1.45-6.15,4.16-4.35,8C241.73,95.88,257.81,120.06,259.14,121.07Z" style="fill:#b98446"/></clipPath><clipPath id="d"><path d="M206.92,37.64c4.73-6.71,10.41-14.62,11.49-16.95S221,9,229.18,7.35c2.41-.47,5-2,19.93,7,17,10.23,22.38,17.11,40.88,18.35,23.35,5.81,36.62,2.55,44.37.47s24.74-11.76,42.39,3.37c14.16,12.14,10.49,36.68,6.79,48.93h0l-.08.24c-.78,2.58-1.55,4.71-2.12,6.2-1.4,3.8-3.44,8.88-6,14.18-.59,1.21,1.2,8.87,1.2,9.54s.12,1.4-1.1,4.46-6.89,18.39-7.4,20.06a5.27,5.27,0,0,1-4,3.54s1.39,4.36.54,7H353.31s.73-5.13,6.84-10.62,6.23-27.73,6.23-27.73-1.51-5.38-2.57-9.52c-.48-1.9-6.4-21.84-8.74-29.11-21,10.09-42.63,16.28-59,15.78-1.18,26.47,6.63,44.44,8.22,47.63,1.8,3.6-.18,4.68-1.44,6.49,1.08,2.88-1.08,7-1.08,7h-11a35.58,35.58,0,0,1,5.23-7.38c2.88-2.89-1.26-15.32-2.88-17.85s-3.25-2.88-4.15-6.3-10.7-27.5-10.7-27.51a15.51,15.51,0,0,0-2.85-3.9c-3.42-2.64-14-9.66-16-25.19-1.07-8.1-16-24.15-19.1-27.48-3.65,2.38-16.38,4.59-22.48,9.48-2.53,2-6.2,3.76-8.63,2.54A6.4,6.4,0,0,1,206.92,37.64Z" style="fill:#c99858"/></clipPath><clipPath id="e"><path d="M236.82,9.62S227.56-.68,225.29,0c3.7,8.63,5.06,11.13,5.06,11.13Z" style="fill:#c99858"/></clipPath><clipPath id="f"><path d="M295.43,42.93l12,10.61s8.88-10.86,11.18-13.85,4.76-6,8.21-7.27,12.53-1.8,12.53-1.8,12.44,3.25,13.79,11.23,2.76,17.33,2.76,17.33a15.33,15.33,0,0,1-.56,7c-1.22,3.56-7.11,16.91-7.11,16.91s-5.48-1.74-6.12-2.83q.22-.71.42-1.38c-16,1.64-25.08-1.5-25.08-1.5l1.5-21.86c-2.57,3.46-9.08,10.71-13,7.71a83.15,83.15,0,0,1-14.07-13.33Z" style="fill:#376590"/></clipPath><clipPath id="g"><path d="M115.86,130.86s.93,6.51-8.58,8.17-31.07,2-31.07,2l-5.86-7.85,5.81-1.66Z" style="fill:#376590"/></clipPath><clipPath id="h"><path d="M99.09,78.92s1,2.72-.4,10.14c-1.2,6.5-8.67,20.5-8.67,20.5s-5.07,9.2-14.48,9.31-10-2.38-10-2.38a62.5,62.5,0,0,1,9.1-26.06c8.07-12.51,15.53-14.6,15.53-14.6Z" style="fill:#018490"/></clipPath><clipPath id="i"><path d="M97.66,81.73c.33-.38,3.91-10.64,3.91-10.64L94.18,65.7l-4,10.13S90.61,80.18,97.66,81.73Z" style="fill:#aa6037"/></clipPath><clipPath id="j"><path d="M145.4,107.86c2.51,5.1,7.95,8.79,11.4,11.61,4.09,3.33,10.25,8.71,12.06,12.39,1.57,3.2,2.91,6.81.86,12.21-.19.5-.41,1-.66,1.55,3.13.41,10.15-5.45,7.7-13.89-.37-1.26,2.45,2.65,2.54,5.58s-1,12.51-12.08,12.51H154s-6.57-12.44-12.12-14.65-10.15-8.89-9.16-14.3c.76-4.14,2-4.7,1.12-8.09Z" style="fill:#c99858"/></clipPath><clipPath id="k"><path d="M145.59,107.48c-.51-3.07-1.46-7.12-2.4-8.5-4.18-7-8.29-4.93-10.26-4.2s-4.47,2.94-4.65,5.1a8.83,8.83,0,0,1-.85,3.37s-1.62,1.63-2.94,2.83l-.56.5c-1.35,1.16-.58,1.84.23,2.29h0c.82,1.42,2.77,2.45,9.5.18l-.7.23c.15.64.26,1,.58,2.41Z" style="fill:#c99858"/></clipPath><clipPath id="l"><path d="M534.3,77.58c-8,.08-37.07,0-37.07,0s-2.55-4.35-1.9-8C504.64,48.23,524.4,66.29,532,67,532,67,536.75,77.58,534.3,77.58Z" style="fill:#c99858"/></clipPath><clipPath id="m"><path d="M526.76,61.55c.61-.36,2.65,2.34,3.69,3.43a13.39,13.39,0,0,1,3.91-.54h.35a13.34,13.34,0,0,1,3.91.54c1-1.09,3.08-3.79,3.69-3.43s.51.41,0,5.77c-.45,8.56-5.44,10.3-7.53,10.3h-.48c-2.09,0-7.08-1.74-7.54-10.3C526.25,62,526.15,61.92,526.76,61.55Z" style="fill:#c99858"/></clipPath></defs><title>Privatschutz_PetHealth_TariffData_Desktop</title><polygon points="607 117.89 33 117.89 0 160 640 160 607 117.89" style="fill:#e5f2f6"/><g style="opacity:0.6000000000000001"><path d="M465,44a5.61,5.61,0,0,0-3.72-1.49c-6.24,0-6.45,4.23-9.68,5.23a7.34,7.34,0,0,0,4.28,1.51C460.15,49.23,460.09,44.92,465,44Z" style="fill:#e5f2f6;opacity:0.5"/><path d="M353.62,12a67,67,0,0,1,8.84.89,59.72,59.72,0,0,0-14.6-2.19c-43.79-.27-51.55,45.7-51.55,45.7h6C304,48.9,314.22,11.72,353.62,12Z" style="fill:#e5f2f6;opacity:0.5"/><path d="M422.45,27.74c.39,0,.78,0,1.16.05a18.67,18.67,0,0,0-6.92-1.35c-10.91,0-14.47,9.93-19.86,11.7A6.49,6.49,0,0,0,401,39.71C407.35,39.71,410.48,27.74,422.45,27.74Z" style="fill:#e5f2f6;opacity:0.5"/><path d="M467.07,43.79a10.41,10.41,0,0,0-2,.19c-4.94.94-4.88,5.25-9.12,5.25a7.34,7.34,0,0,1-4.28-1.51c-7.07-4.75-15.11-19.11-28-19.93-.38,0-.77-.05-1.16-.05-12,0-15.1,12-21.49,12a6.49,6.49,0,0,1-4.13-1.57c-6.42-5.11-10.56-21.22-34.37-25.29a67,67,0,0,0-8.84-.89c-39.4-.24-49.63,36.94-51.29,44.4-.18.83-.26,1.3-.26,1.3H476.31S474.14,43.79,467.07,43.79Z" style="fill:#e5f2f6"/></g><path d="M233.16,10.72s-8.8-9.78-10.95-9.11c3.51,8.2,4.8,10.57,4.8,10.57Z" style="fill:#c99858"/><g style="clip-path:url(#a)"><path d="M229.47,10.07c-1.38-2.59-4.71-7-7.26-8.46a9.64,9.64,0,0,0,2.64,9S230.86,12.65,229.47,10.07Z" style="fill:#b98446"/></g><path d="M377.32,150.64h11s2.16-4.14,1.08-7c1.26-1.81,3.24-2.89,1.44-6.49s-8.22-21.1-8.26-48.79C370.93,61,346.5,73.86,346.5,73.86s28.11,41.82,29,45.25,2.53,3.78,4.15,6.3,5.77,15,2.88,17.85A35.35,35.35,0,0,0,377.32,150.64Z" style="fill:#b98446"/><g style="clip-path:url(#b)"><polygon points="364.81 143.9 356.77 141.43 351.37 151.67 366.57 152.97 364.81 143.9" style="fill:#003345"/><polygon points="390.07 144.33 381.25 143.34 376.35 152.2 391.55 153.5 390.07 144.33" style="fill:#003345"/></g><path d="M382.85,113.39c-.67,5.09,8.13,6.21,12.83,4.64s4-33.19,1.46-46.22S391.55,44.49,375.74,38C373,53.11,392.55,45.39,382.85,113.39Z" style="fill:#24343c"/><path d="M259.14,121.07c1.33,1,10,4.74,10,4.74s2.81,2.33,8.8.49c-1.83-8.41-4.16-9.77-4.16-9.77l-4.83,2.7a36.48,36.48,0,0,1-5.52-3.09c-1.67-2-13.74-25.26-13.74-25.26l30.34-3-15-21L243,82c-2.09,1.45-6.15,4.16-4.35,8C241.73,95.88,257.81,120.06,259.14,121.07Z" style="fill:#b98446"/><g style="clip-path:url(#c)"><polygon points="253.46 118.11 245.41 115.64 240.01 125.88 255.22 127.18 253.46 118.11" style="fill:#24343c"/><polygon points="268.94 117.74 269.28 129.97 280.07 128.62 275.76 113.53 268.94 117.74" style="fill:#24343c"/></g><path d="M206.92,37.64c4.73-6.71,10.41-14.62,11.49-16.95S221,9,229.18,7.35c2.41-.47,5-2,19.93,7,17,10.23,22.38,17.11,40.88,18.35,23.35,5.81,36.62,2.55,44.37.47s24.74-11.76,42.39,3.37c14.16,12.14,10.49,36.68,6.79,48.93h0l-.08.24c-.78,2.58-1.55,4.71-2.12,6.2-1.4,3.8-3.44,8.88-6,14.18-.59,1.21,1.2,8.87,1.2,9.54s.12,1.4-1.1,4.46-6.89,18.39-7.4,20.06a5.27,5.27,0,0,1-4,3.54s1.39,4.36.54,7H353.31s.73-5.13,6.84-10.62,6.23-27.73,6.23-27.73-1.51-5.38-2.57-9.52c-.48-1.9-6.4-21.84-8.74-29.11-21,10.09-42.63,16.28-59,15.78-1.18,26.47,6.63,44.44,8.22,47.63,1.8,3.6-.18,4.68-1.44,6.49,1.08,2.88-1.08,7-1.08,7h-11a35.58,35.58,0,0,1,5.23-7.38c2.88-2.89-1.26-15.32-2.88-17.85s-3.25-2.88-4.15-6.3-10.7-27.5-10.7-27.51a15.51,15.51,0,0,0-2.85-3.9c-3.42-2.64-14-9.66-16-25.19-1.07-8.1-16-24.15-19.1-27.48-3.65,2.38-16.38,4.59-22.48,9.48-2.53,2-6.2,3.76-8.63,2.54A6.4,6.4,0,0,1,206.92,37.64Z" style="fill:#c99858"/><g style="clip-path:url(#d)"><path d="M353,66.52c2.06,7.43,6.7,21.82,6.7,21.82L296,93.22s.37-7.81.65-18.9c6.91-.08,15.93,14,41.78-.21C344.33,70.85,347.53,68.15,353,66.52Z" style="fill:#b98446"/><polygon points="364.81 144.53 356.77 142.07 351.37 152.31 366.57 153.61 364.81 144.53" style="fill:#003345"/><polygon points="303.53 143.78 295.48 141.32 290.08 151.55 305.29 152.86 303.53 143.78" style="fill:#24343c"/><path d="M247,25.8c3.37,5.52,1.11,11.57-1.38,15.08-2.2-2.53-4.38-4.9-5.26-5.85C247.08,31.19,247,25.8,247,25.8Z" style="fill:#b98446"/></g><path d="M221.78,21a1.37,1.37,0,1,0,1.37-1.37A1.36,1.36,0,0,0,221.78,21Z" style="fill:#24343c"/><path d="M207.19,40.75c-.13,1,.2,1.88.75,2S209,42,209.17,41s-.2-1.88-.75-1.95S207.33,39.74,207.19,40.75Z" style="fill:#24343c"/><path d="M229.16,6s2.27,1,.23,1.48c-4.1,1-8,6.35-9.47,10.59s-3.95,3.35-4.11.56C215.6,14.18,222.05,6.13,229.16,6Z" style="fill:#24343c"/><path d="M290,32.66a21.9,21.9,0,0,1-18.61,1.1c-15.26-5.87-27.69-23.64-34.56-24.14C234.33,7,233.16,5.79,232.36,5c9.93.33,15.69.86,27.81,10.82C266.9,21.36,281.63,30.26,290,32.66Z" style="fill:#24343c"/><path d="M236.82,9.62S227.56-.68,225.29,0c3.7,8.63,5.06,11.13,5.06,11.13Z" style="fill:#c99858"/><g style="clip-path:url(#e)"><path d="M232.94,8.94c-1.46-2.73-5-7.4-7.65-8.9a10.14,10.14,0,0,0,2.79,9.44S234.4,11.66,232.94,8.94Z" style="fill:#b98446"/></g><path d="M300.55,49.29s-4.68-5.25-5.05-5.55-1-1.7-2.06-2.85c-3.76-4.16-6.84-4.21-7.92-4A2.66,2.66,0,0,0,283.23,39c-.41,4.19,4.86,6.44,7.71,9.26l5.53,5.47Z" style="fill:#f5aa98"/><path d="M328.22,159.61l-21.76.06s.53-2.8,2.16-3.19,4.7,0,6.36-2.11,1.91-2.68,2.87-2.91,2.58,1.56,5.35,1.3,3.42-.84,3.42-.84S328.41,157.51,328.22,159.61Z" style="fill:#18262b"/><polygon points="346.5 78.42 343.16 152.94 333.99 152.97 326.76 77.68 346.5 78.42" style="fill:#172e4c"/><polygon points="335.42 78.88 326.31 118.68 326.92 153.05 316.24 152.75 314.14 116.57 317.44 77.42 335.42 78.88" style="fill:#172e4c"/><path d="M345,159.18c0-2.87-2.86-5.19-6.36-5.18s-6.33,2.34-6.33,5.21C332.29,160.42,345,160.1,345,159.18Z" style="fill:#18262b"/><path d="M334,152.83a8.14,8.14,0,0,1-.65,3.49c-.78,1.1,3.58.26,5.25.25s6,1,5.33-.15a10.09,10.09,0,0,1-.76-3.62C343.16,151.93,334,152.16,334,152.83Z" style="fill:#18262b"/><path d="M340,83.67a25.66,25.66,0,0,1,2.16-3.52L348,82.48s-1.44,5.68-3.19,7.24-4.72,3.37-6.25,2.23S339.41,85.07,340,83.67Z" style="fill:#f5aa98"/><path d="M295.43,42.93l12,10.61s8.88-10.86,11.18-13.85,4.76-6,8.21-7.27,12.53-1.8,12.53-1.8,12.44,3.25,13.79,11.23,2.76,17.33,2.76,17.33a15.33,15.33,0,0,1-.56,7c-1.22,3.56-7.11,16.91-7.11,16.91s-5.48-1.74-6.12-2.83q.22-.71.42-1.38c-16,1.64-25.08-1.5-25.08-1.5l1.5-21.86c-2.57,3.46-9.08,10.71-13,7.71a83.15,83.15,0,0,1-14.07-13.33Z" style="fill:#376590"/><g style="clip-path:url(#f)"><path d="M342.1,80.28l4.88-17S344.52,48,344.45,48.65c-2.73,21.79-12.8,32.15-12.8,32.15Z" style="fill:#31547b;opacity:0.5"/><path d="M319.46,48l-.58,8.34-5.5,7.45S315.35,59.26,319.46,48Z" style="fill:#31547b;opacity:0.5"/></g><path d="M329.49,23.19l8.9-2.1s.72,7.62.87,9.32c.12,1.35-2.83,5.29-7.59,5-1.34-.08-2.49-1.68-2.36-4.69Z" style="fill:#f5aa98"/><polygon points="335.81 25.51 329.3 30.85 329.49 23.18 335.81 25.51" style="fill:#e98f81"/><path d="M331.23,27.81c7.53-1.32,8.39-7,8.64-11.28.17-2.73-.46-8.64-6.09-8.72s-8.41.78-8.51,5.73C325.15,19.82,327.54,28.45,331.23,27.81Z" style="fill:#f5aa98"/><path d="M338.62,21.47c1.15.13,1.87-1.88,2-2.82a2.36,2.36,0,0,0-.91-2.38c-1.15-.82-1.95,1.05-1.71,2.55S337.65,21.37,338.62,21.47Z" style="fill:#f5aa98"/><path d="M329.81,22.59a.24.24,0,0,1-.2-.24l0-4.06a.24.24,0,0,1,.24-.24.24.24,0,0,1,.24.24l0,4.07a.23.23,0,0,1-.24.23S329.82,22.6,329.81,22.59Z" style="fill:#e98f81"/><path d="M327.51,18.47a.56.56,0,0,1,.3-.69.49.49,0,0,1,.57.41.57.57,0,0,1-.3.69A.48.48,0,0,1,327.51,18.47Z" style="fill:#18262b"/><path d="M332.25,18a.57.57,0,0,1,.4-.63c.26,0,.47.18.5.49a.57.57,0,0,1-.4.63C332.5,18.48,332.28,18.26,332.25,18Z" style="fill:#18262b"/><path d="M337.48,17.91c.39.63,1.1-.82,1.41-1.09.66-.59,1.26-.43,1.62.4a9,9,0,0,0,1-4.07c-.2-1.35-.21-2.8-1.91-3.68A6.57,6.57,0,0,0,333.88,5c-3.3-.13-3.2,2.07-5,2.2-2,.16-4,1.49-4.17,5.42-.07,2,4.41,1.2,5.33,1a30.85,30.85,0,0,0,3.65-.9c.34-.11,1.27-.63,1.58-.54.62.19.55,1.42.59,1.92a1.51,1.51,0,0,0,.86,1.52c1.08.69.25,1.2.68,2.16Z" style="fill:#18262b"/><path d="M330.27,24.53a3,3,0,0,1,1.4-.68h0a2.74,2.74,0,0,1,.58,0,.24.24,0,1,0,0-.48,2.83,2.83,0,0,0-.51,0,3,3,0,0,0-1.32.47l-.09.05a2.87,2.87,0,0,0-.4.31.24.24,0,0,0,0,.35A.24.24,0,0,0,330.27,24.53Z" style="fill:#e98f81"/><path d="M131.23,89.52a35,35,0,0,1,5.62-.83c2.49-.1,6.11,1.47,6.66,4.93s-.66,4-1.62,3.71A39.17,39.17,0,0,1,137,94.18l-5,.49Z" style="fill:#aa6037"/><path d="M87.36,90c5.61,3.33,20,10.44,25,11.23a15.76,15.76,0,0,0,6.17-.48,123.59,123.59,0,0,0,15.69-6.19,33.76,33.76,0,0,0-.78-5.6s-8.64,2.08-16.76,3.75c-8.1-4.06-23.09-12.39-22.94-12.16Z" style="fill:#016f7a"/><rect x="486.11" y="77.59" width="96.97" height="3.83" rx="1.91" style="fill:#31547b"/><rect x="555.09" y="80" width="25.28" height="61.09" style="fill:#31547b"/><rect x="476.31" y="80" width="79.61" height="61.09" style="fill:#376590"/><path d="M540.21,50.09s7.44-5.55,7.47-15.28c0-6.16-7.47-14.13-12.41-14.12-2.8,0-6.46.91-7.36,4.81s-3.83,1.14-6.69,5.69,3.18,9.09-.57,12.75-7.74.66-12.22,6.59S512.6,65,512.6,65Z" style="fill:#5c2312"/><path d="M505.93,77.58c.58-3.18,4.44-14.92,4.44-14.92s5.53-5.42,8-7.45,6.14-5.05,9.86-6.33,12.48-2.27,12.48-2.27,14.26,4.19,15.59,12.73c.52,3.36,3,15.14,3.42,18.25Z" style="fill:#856a9e"/><path d="M530.34,39.5l9.57-2.11s.66,8.15.8,10c.11,1.45-4.36,5.46-7.75,5.46-2.31,0-3.11-2.07-2.93-5.27Z" style="fill:#f5aa98"/><polygon points="537.09 42.07 530.02 47.68 530.34 39.49 537.09 42.07" style="fill:#e98f81"/><path d="M532.24,43.91c7.73-1.24,8.68-7,9-11.37.21-2.79-.36-8.83-6.12-9s-8.62.68-8.79,5.72C526.12,35.68,528.45,44.52,532.24,43.91Z" style="fill:#f5aa98"/><path d="M539.9,37.55c1.17.16,1.93-1.89,2.12-2.84a2.4,2.4,0,0,0-.91-2.44c-1.16-.86-2,1-1.78,2.58S538.9,37.44,539.9,37.55Z" style="fill:#f5aa98"/><path d="M530.86,38.57a.24.24,0,0,1-.21-.24l.09-4.15a.26.26,0,0,1,.26-.24.25.25,0,0,1,.24.25l-.09,4.15a.25.25,0,0,1-.25.24Z" style="fill:#e98f81"/><path d="M528.56,34.34a.58.58,0,0,1,.31-.7.49.49,0,0,1,.58.42.58.58,0,0,1-.31.7A.48.48,0,0,1,528.56,34.34Z" style="fill:#5c2312"/><path d="M533.42,33.87a.58.58,0,0,1,.42-.64c.26,0,.48.2.51.52a.59.59,0,0,1-.43.63C533.67,34.42,533.44,34.19,533.42,33.87Z" style="fill:#5c2312"/><path d="M538.78,33.91c.39.65,1.14-.82,1.46-1.1.68-.59,1.29-.42,1.65.43a9.21,9.21,0,0,0,1.05-4.13c-.19-1.38-.18-2.87-1.91-3.78a6.68,6.68,0,0,0-5.76-4.64c-3.37-.19-9.17,2.45-9.45,7.64-.11,2,11.53,2.8,12.25,3.26,1.1.73.24,1.24.66,2.23Z" style="fill:#5c2312"/><path d="M531,40.71a3,3,0,0,1,1.44-.68h0a2.81,2.81,0,0,1,.59,0,.24.24,0,0,0,.26-.23.25.25,0,0,0-.23-.27,2.94,2.94,0,0,0-.52,0,3.1,3.1,0,0,0-1.36.46L531,40a2.4,2.4,0,0,0-.41.32.24.24,0,0,0,0,.35A.26.26,0,0,0,531,40.71Z" style="fill:#e98f81"/><polygon points="546.13 63.02 548.54 77.59 540.61 77.59 546.13 63.02" style="fill:#775f8d"/><path d="M519.69,63.11a4.06,4.06,0,0,1,.25-2.47.91.91,0,0,1,1.06-.17c.29.09.79.24.79,1.15a4.65,4.65,0,0,1-.44,2c-.05.05-.2.29-.79.14S519.81,63.47,519.69,63.11Z" style="fill:#e98f81"/><path d="M269.91,146.64H166.53S174,120.29,203,120.46c19.23,0,23.7,14.09,33.64,14.09s8.45-2.1,16.57-2.1C267.26,132.45,269.91,146.64,269.91,146.64Z" style="fill:#6cbfc3;opacity:0.30000000000000004"/><path d="M266.11,146.64H162.73s7.46-26.35,36.44-26.18c19.23,0,23.7,14.09,33.64,14.09s8.45-2.1,16.57-2.1C263.46,132.45,266.11,146.64,266.11,146.64Z" style="fill:#6cbfc3"/><path d="M75.24,147.51a5.37,5.37,0,0,1-.33-4.28c1-2.21,2.64-3.72,2.42-4.57s-3.62-.34-4.58-2.65-.74-3.2-.74-3.2-5,.91-6.58,1.93l7.65,15.19" style="fill:#18262b"/><path d="M73.08,149.93h5.48s-.54-2.51-2-2.81c-.48-.1-1.1-.11-1.77-.17" style="fill:#18262b"/><path d="M91.25,149.82l19.57,0s-.51-2.51-2-2.83-4.22.09-5.75-1.79-2.15-4-3-4.21-1.92,3.09-4.41,2.9-3.19-.76-3.19-.76S91,147.94,91.25,149.82Z" style="fill:#18262b"/><path d="M112.66,115,102,143.51l-9.83.75,5.12-20.85a45.71,45.71,0,0,1,6.62-10.64c4.24-5,6.41-7.35,6.41-7.35S115.45,106.77,112.66,115Z" style="fill:#31547b"/><path d="M87.64,109.66s18.69-4.84,19.75-5.06a5,5,0,0,1,5.59,3.33c1.13,3.41-12.83,17.55-12.83,17.55l-21.92-5.89Z" style="fill:#31547b"/><path d="M115.86,130.86s.93,6.51-8.58,8.17-31.07,2-31.07,2l-5.86-7.85,5.81-1.66Z" style="fill:#376590"/><g style="clip-path:url(#g)"><path d="M107,129.52a26.11,26.11,0,0,1-16.54,6.2c-23.78,0-21.05-6.48-21.05-6.48Z" style="fill:#31547b"/></g><path d="M115.88,131c.09-5.87-9.1-7.7-10.23-8.08s-22.36-7.87-22.36-7.87l-17.71.48s-3.07,15.94,16.58,18.11,33.1-1.83,33.1-1.83" style="fill:#376590"/><path d="M99.09,78.92s1,2.72-.4,10.14c-1.2,6.5-8.67,20.5-8.67,20.5s-5.07,9.2-14.48,9.31-10-2.38-10-2.38a62.5,62.5,0,0,1,9.1-26.06c8.07-12.51,15.53-14.6,15.53-14.6Z" style="fill:#018490"/><g style="clip-path:url(#h)"><polygon points="82.85 113.7 88.16 93.33 77.3 107.29 81.54 119.8 82.85 113.7" style="fill:#016f7a"/></g><path d="M81,120.05l.74,1.13c3.92,5.91,7.57,2.64,7.57,2.64s4.11-3.15,7.6-4.13c.72-1.48-3.55-4.41-6.75-3.21A16.46,16.46,0,0,0,86,118.56l-.52-1.27" style="fill:#aa6037"/><path d="M86.36,118.28l-5.93,3.78L70.58,109s-1.66-2.61.69-6.89S82.43,84.57,82.43,84.57s3.86-4.68,7.31-2.75,3.48,3.84-.28,9.92c-4,6.48-9.51,14.48-9.51,14.48Z" style="fill:#018490"/><path d="M97.66,81.73c.33-.38,3.91-10.64,3.91-10.64L94.18,65.7l-4,10.13S90.61,80.18,97.66,81.73Z" style="fill:#aa6037"/><g style="clip-path:url(#i)"><path d="M101.34,75l-1.57,4.35a11.62,11.62,0,0,1-3-7.56A46.38,46.38,0,0,0,101.34,75Z" style="fill:#924326"/></g><path d="M101.93,76.63c1.73.16,5.77-6.35,6.55-11.59s-6.34-7.36-8.43-7a8.84,8.84,0,0,0-6.41,8.55C93.8,71.64,98.86,76.34,101.93,76.63Z" style="fill:#aa6037"/><path d="M92.3,70.33s4.34,1.15,3.64-4.76c-.12-1,.29-2.57,1.55-2.47.94.07,1,1.43,1.09,2.17,0,.2-.06.41.06.58s.38.2.58.24c.75.14,2-3.12,2.12-3.69s-.15-1.68.25-2.32c.65-1,2,.15,2.66.52s2.67,1.57,3.57,1.4,1.36-1.67,1.15-2.58c-.3-1.31-1.15-1.26-2.31-2.11-1.65-1.2-4.19-3-7-3.3a7.23,7.23,0,0,0-6,2.24s-2.35.9-3,4.81S93.09,67.4,92.3,70.33Z" style="fill:#24343c"/><path d="M106,68.06c.1-.31.32-.52.5-.48s.25.32.15.63-.32.52-.5.48S105.86,68.36,106,68.06Z" style="fill:#24343c"/><path d="M107.64,68.45s.06,4.18-.31,4.4a3.92,3.92,0,0,1-1.8.11C104.68,72.92,107.64,68.45,107.64,68.45Z" style="fill:#aa6037"/><path d="M139.19,149.73h-3.88s-1.33-.14-1.33-2.08,2.55-.82,2.6-2.86-3.57-22.1-3.57-22.1.25-4,5.31-4,4.19,10.88,4.19,11.19-1.33,9.14-1.43,13.33S141,149.73,139.19,149.73Z" style="fill:#b98446"/><path d="M145.4,107.86c2.51,5.1,7.95,8.79,11.4,11.61,4.09,3.33,10.25,8.71,12.06,12.39,1.57,3.2,2.91,6.81.86,12.21-.19.5-.41,1-.66,1.55,3.13.41,10.15-5.45,7.7-13.89-.37-1.26,2.45,2.65,2.54,5.58s-1,12.51-12.08,12.51H154s-6.57-12.44-12.12-14.65-10.15-8.89-9.16-14.3c.76-4.14,2-4.7,1.12-8.09Z" style="fill:#c99858"/><g style="clip-path:url(#j)"><path d="M124.34,101.91s.57,3.41-1.87,4c-1.69.4-1-2.46-1-2.46Z" style="fill:#18262b"/><path d="M166.66,150.82c-.81,1.27,5-9,4.82-14.19s9.77-12.39,9.77-12.39l.39,19.83-2.34,6.2Z" style="fill:#b98446"/><path d="M142.06,149c-.81,1.27-2.13-8.67-2.32-13.87a20.57,20.57,0,0,0-1.56-7.87l22.1,15.52L158.64,149Z" style="fill:#b98446"/><path d="M151.61,131.9c-7.17-6-3.11-20.31-3.11-20.31L168.82,129S158.78,137.88,151.61,131.9Z" style="fill:#b98446"/><path d="M145.92,108.65a17.42,17.42,0,0,0,1.47,2l-14.18,2.47s.27-.3.26-.32l12.32-4.44C145.82,108.47,145.89,108.59,145.92,108.65Z" style="fill:#b98446"/><polygon points="182.74 136.45 176.2 137.89 176.35 130.55 182.74 136.45" style="fill:#18262b"/></g><path d="M144.66,149.73H164s5.63-5.49.86-13.42-10.39-8.61-14-6.2-3.06,8.4.33,12.76c3,3.83,4.06,3.89,4.06,3.89l-5.68-.28a3.76,3.76,0,0,0-2.89-1C144.93,145.65,142.55,149.73,144.66,149.73Z" style="fill:#c99859"/><path d="M141.14,149.73h-3.88s-1.33-.14-1.33-2.08,2.56-.82,2.61-2.86-3.58-22.1-3.58-22.1.26-4,5.31-4,4.19,10.88,4.19,11.19-1.33,9.14-1.43,13.33S142.93,149.73,141.14,149.73Z" style="fill:#c99859"/><path d="M145.59,107.48c-.51-3.07-1.46-7.12-2.4-8.5-4.18-7-8.29-4.93-10.26-4.2s-4.47,2.94-4.65,5.1a8.83,8.83,0,0,1-.85,3.37s-1.62,1.63-2.94,2.83l-.56.5c-1.35,1.16-.58,1.84.23,2.29h0c.82,1.42,2.77,2.45,9.5.18l-.7.23c.15.64.26,1,.58,2.41Z" style="fill:#c99858"/><g style="clip-path:url(#k)"><path d="M133.44,111.34c-.8-.55-.9-1.75-.39-2.07,1.88-.59,3.72-3.08,3.72-3.08C137.32,107.55,136.06,111.2,133.44,111.34Z" style="fill:#b98446"/></g><path d="M123.93,106.58l.56-.5a3.08,3.08,0,0,1-.33,2.79C123.35,108.42,122.58,107.74,123.93,106.58Z" style="fill:#18262b"/><path d="M136.88,95.49a4.61,4.61,0,0,1,4.26,4.14c.43,3.11-2,5.91-3.21,6.12-2.93.24-5.32-5.47-5.4-7.62S135.61,95.47,136.88,95.49Z" style="fill:#18262b"/><path d="M130,101a.71.71,0,1,0,.42-.91A.7.7,0,0,0,130,101Z" style="fill:#18262b"/><polygon points="145.59 106.97 133.15 110.5 133.7 112.89 146.33 109.19 145.59 106.97" style="fill:#376590"/><rect x="472.57" y="77.59" width="87.97" height="3.83" rx="1.91" style="fill:#376590"/><path d="M495.54,76.75a8.19,8.19,0,0,0-2,4c-.17,1.23-.14.88-.18,1.33s-.06.89-.06,1.34a19.36,19.36,0,0,0,.91,5.27c.24.86.48,1.72.65,2.56a9.87,9.87,0,0,1,.21,2.44,7.93,7.93,0,0,1-.38,2.12A9.22,9.22,0,0,1,494,97.4c-.23.42-.43.74-.58,1l-.23.33a1.57,1.57,0,0,1-1.72.47c-.63-.21-.89-.74-.6-1.21l0,0,.18-.29a9.43,9.43,0,0,0,.47-.83c1.94-3.22-.19-7.58-.19-7.58a20.77,20.77,0,0,1-1.17-5.65c0-.5,0-1,0-1.5s.08-1,.15-1.48l.05-.35,0-.14,0,0,0-.09.05-.18c.07-.24.14-.48.22-.72a11.37,11.37,0,0,1,.57-1.42,7.79,7.79,0,0,1,2-2.7,6.15,6.15,0,0,1,1.82-1.06,6.86,6.86,0,0,1,2.25-.41,9,9,0,0,1,3.39.64c.17.06.93.38,1.14.45A9.88,9.88,0,0,0,495.54,76.75Z" style="fill:#b98446"/><path d="M551.39,77.62H529.26l2.22-5.27,14.2,2.49a9.29,9.29,0,0,1,3.23-.26A3.1,3.1,0,0,1,551.39,77.62Z" style="fill:#b98446"/><path d="M534.3,77.58c-8,.08-37.07,0-37.07,0s-2.55-4.35-1.9-8C504.64,48.23,524.4,66.29,532,67,532,67,536.75,77.58,534.3,77.58Z" style="fill:#c99858"/><g style="clip-path:url(#l)"><path d="M526.11,61.62c6,2.13,10,0,10,0l-21.29-8.74S521.52,60,526.11,61.62Z" style="fill:#b98446"/><path d="M524.44,62.11s-.47,12.9,8.08,13S535,59.68,535,59.68Z" style="fill:#b98446"/><path d="M513,78.91s5.26-3.8,10.46-3.75S526,78.81,526,78.81Z" style="fill:#b98446"/></g><path d="M526.76,61.55c.61-.36,2.65,2.34,3.69,3.43a13.39,13.39,0,0,1,3.91-.54h.35a13.34,13.34,0,0,1,3.91.54c1-1.09,3.08-3.79,3.69-3.43s.51.41,0,5.77c-.45,8.56-5.44,10.3-7.53,10.3h-.48c-2.09,0-7.08-1.74-7.54-10.3C526.25,62,526.15,61.92,526.76,61.55Z" style="fill:#c99858"/><g style="clip-path:url(#m)"><path d="M542.25,68.21s-.3-2-3.63-3.23a11.1,11.1,0,0,0-3.87-.93,12.57,12.57,0,0,0-4.3.93c-3.49,1.33-3.69,3.35-3.69,3.35l-1.48-6.81,18.24-.72Z" style="fill:#b98446"/></g><path d="M531.24,70.52c.08.28-.16.6-.54.71a.63.63,0,0,1-.83-.3c-.09-.28.15-.6.53-.71A.65.65,0,0,1,531.24,70.52Z" style="fill:#18262b"/><path d="M537.65,70.48c-.1.27.12.6.49.74A.65.65,0,0,0,539,71c.1-.28-.12-.61-.49-.75A.65.65,0,0,0,537.65,70.48Z" style="fill:#18262b"/><path d="M533.22,73.22a.16.16,0,0,1,.15-.09h1.94a.16.16,0,0,1,.15.09.17.17,0,0,1,0,.18l-1,1.22a.16.16,0,0,1-.26,0l-1-1.22A.17.17,0,0,1,533.22,73.22Z" style="fill:#18262b"/><path d="M526.7,94.17c-1.35-.76-.37-5.57-.37-5.57l-3.59-14.76,5.88.85.89,13.88a20,20,0,0,1,.41,4.58A2.21,2.21,0,0,1,526.7,94.17Z" style="fill:#c99858"/><path d="M513.25,77.62s.73-.16.73-1.38-1.93-1.09-3.23-.92c-1.8.24-1.65,0-1.35-.77,4.15-7.62-2.16-11.13-5.23-11.13-11.85,0-9.64,14.17-8.18,14.17Z" style="fill:#b98446"/><path d="M514.36,77.62s.74-.16.74-1.38-4.15-1.35-5.46-1.18c-1.79.24-1.31-.52-1-1.24,4.14-7.62-2.52-10.4-5.59-10.4-11.85,0-9.63,14.17-8.18,14.17Z" style="fill:#c99859"/><path d="M518.5,63.85c-1.2.25-5.72-.39-7-1.55a2.76,2.76,0,0,1-.69-3c.21-.75.54-2.06,3.11-1.76a15.13,15.13,0,0,1,5.72,1.93,2,2,0,0,1,.54,2.19C519.83,63.22,519.51,63.63,518.5,63.85Z" style="fill:#f5aa98"/></svg>